<?xml version="1.0" encoding="UTF-8"?>
<svg width="16px" height="16px" viewBox="0 0 16 16" version="1.1" xmlns="http://www.w3.org/2000/svg" xmlns:xlink="http://www.w3.org/1999/xlink">
    <!-- Generator: Sketch 51.3 (57544) - http://www.bohemiancoding.com/sketch -->
    <title>Custom Preset</title>
    <desc>Created with Sketch.</desc>
    <defs></defs>
    <g id="Custom-Preset" stroke="none" stroke-width="1" fill="none" fill-rule="evenodd">
        <rect fill="#FFFFFF" x="0" y="0" width="16" height="16"></rect>
        <polyline id="Shape" stroke="#000000" stroke-width="0.2" points="2 14.8791111 10.3555556 14.8791111 10.3555556 13.8 6.24711111 13.8 6.24711111 12.7333333 10.3288889 12.7333333 10.3288889 11.6666667 6.23466667 11.6666667 6.23466667 10.6 10.2942222 10.6 10.2942222 9.53333333 6.17244444 9.53333333 6.17244444 8.46666667 10.2951111 8.46666667 10.2951111 7.4 6.24355556 7.4 6.24355556 6.33333333 10.3244444 6.33333333 10.3244444 5.26666667 2 5.26666667 2 4.2 14 4.2 14 3.13333333 2 3.13333333 2 2.06666667 14 2.06666667 14 1"></polyline>
    </g>
</svg>